<svg xmlns="http://www.w3.org/2000/svg" xmlns:xlink="http://www.w3.org/1999/xlink" width="16" height="16" viewBox="0 0 16 16" fill="none"><g opacity="1"  transform="translate(0 0)  rotate(0)"><mask id="bg-mask-0" fill="white"><use transform="translate(0 0)  rotate(0)" xlink:href="#path_0"></use></mask><g mask="url(#bg-mask-0)" ><path id="路径 1" fill-rule="evenodd" style="fill:#DC1D4A" opacity="1" d="M7.94199 0.02C6.68199 0.7 5.65199 1.64 4.86199 2.84C4.85199 2.86 4.85199 2.88 4.85199 2.89C4.86199 2.91 4.87199 2.93 4.89199 2.93C6.62199 3.61 9.38199 3.6 11.122 2.94C11.142 2.93 11.152 2.92 11.162 2.9C11.162 2.88 11.162 2.87 11.152 2.85C10.432 1.7 9.28199 0.63 8.07199 0.01C8.02199 -0.01 7.98199 0 7.94199 0.02Z"></path><path id="路径 2" fill-rule="evenodd" style="fill:#C8D9E5" opacity="1" d="M11.4834 3.3404C11.4554 3.3094 11.4074 3.2984 11.3594 3.3124C9.5624 3.8504 7.7024 3.9484 5.7814 3.6064C5.3774 3.5344 5.0334 3.4324 4.7484 3.3014C4.7034 3.2804 4.6544 3.2804 4.61641 3.3014C4.4804 3.3754 4.4094 3.4994 4.4024 3.6744C5.6434 3.8524 6.9264 4.1024 8.1124 4.0724C9.2864 4.0424 10.4534 3.8724 11.5874 3.5654C11.5714 3.4724 11.5374 3.3984 11.4834 3.3404Z"></path><path id="路径 3" fill-rule="evenodd" style="fill:#E2F0FA" opacity="1" d="M12.5887,8.89519c-0.19,1.71001 -0.53,3.27001 -1.59,4.66001l-0.48,0.32l-1.64996,-0.16c0.39,-1.76 0.16,-3.39 -0.67,-4.88001c-0.11,-0.18 -0.21,-0.18 -0.31,0c-0.82,1.53001 -1.04,3.16001 -0.67,4.89001l-1.69,0.09l-0.48,-0.28c-0.93,-1.41 -1.44,-2.96 -1.52,-4.67001c-0.22,-1.83 0.08,-3.55 0.87,-5.19c1.25,0.18 2.53,0.43 3.71,0.4c1.18,-0.03 3.47996,-0.51 3.47996,-0.51c1.12,1.85 1,5.33 1,5.33zM8.04874,4.39519c-1.07,0 -1.93,0.86 -1.93,1.93c0,1.06 0.86,1.92 1.93,1.92c1.06,0 1.92,-0.86 1.92,-1.92c0,-1.07 -0.86,-1.93 -1.92,-1.93z"></path><path id="路径 5" fill-rule="evenodd" style="fill:#DC1D4A" opacity="1" d="M8.86804,13.7174l-0.28,1.12l-0.25,0.65c-0.17,0.47 -0.37,0.48 -0.59,0.04l-0.25,-0.7l-0.28,-1.11c-0.37,-1.72 -0.15,-3.35 0.67,-4.87995c0.1,-0.19 0.2,-0.19 0.31,0c0.83,1.48995 1.06,3.11995 0.67,4.87995zM3.52804,8.85745c0.08,1.70995 0.59,3.26995 1.52,4.67995c-1.38,0.28 -2.37,1.05 -2.98,2.3c-0.07,0.15 -0.28,0.24 -0.32,0.01c-0.33,-1.85 -0.51,-4.2 -0.02,-6.03995c0.01,-0.04 0.04,-0.08 0.08,-0.1zM12.588,8.88745l1.58,0.78c0.04,0.02 0.07,0.06 0.09,0.1c0.1,0.25995 0.16,0.52995 0.19,0.80995c0.21,1.85 0.15,3.62 -0.19,5.29c-0.05,0.24 -0.24,0.11 -0.31,-0.02c-0.58,-1.15 -1.63,-2.14 -2.95,-2.29c1.06,-1.4 1.4,-2.95 1.59,-4.66995z"></path><path id="路径 6" fill-rule="evenodd" style="fill:#C8D9E5" opacity="1" d="M7.21716,13.7259l0.28,1.1l-1.33,0.05c-0.31,-0.28 -0.53,-0.63 -0.64,-1.06zM8.86716,13.7159l1.66004,0.16c-0.09,0.48 -0.31,0.8 -0.65004,0.97l-1.29,-0.01z"></path><path id="路径 7" fill-rule="evenodd" style="fill:#4F687D" opacity="1" d="M9.87951,14.8467l-0.16,0.59c-0.01,0.04 -0.05,0.07 -0.1,0.07l-1.28,-0.02l0.25,-0.65zM7.49951,14.8267l0.25,0.7l-1.28,-0.02c-0.05,0 -0.09,-0.03 -0.1,-0.08l-0.2,-0.55zM9.96951,6.32673c0,1.06 -0.86,1.92 -1.92,1.92c-1.07,0 -1.93,-0.86 -1.93,-1.92c0,-1.07 0.86,-1.93 1.93,-1.93c1.06,0 1.92,0.86 1.92,1.93zM8.03951,5.08673c-0.68,0 -1.23,0.56 -1.23,1.24c0,0.68 0.55,1.23 1.23,1.23c0.68,0 1.24,-0.55 1.24,-1.23c0,-0.68 -0.56,-1.24 -1.24,-1.24z"></path><path id="路径 12" fill-rule="evenodd" style="fill:#C8D9E5" opacity="1" d="M7.42658 7.38966C7.80658 7.60966 8.27658 7.60966 8.65658 7.38966C9.03658 7.16966 9.27658 6.76966 9.27658 6.31966C9.27658 5.63966 8.72658 5.08966 8.03658 5.08966C7.35658 5.08966 6.80658 5.63966 6.80658 6.31966C6.80658 6.76966 7.04658 7.16966 7.42658 7.38966Z"></path></g></g><defs><rect id="path_0" x="0" y="0" width="16" height="16" /></defs></svg>